# xmcd
#
# Track frame offsets:
#	150
#	20361
#	38479
#	59485
#	81743
#	103968
#	125561
#	145000
#	166765
#	185817
#
# Disc length: 2862 seconds
# Revision: 0
# Processed by: cddbd v1.5.2PL0 Copyright (c) Steve Scherf et al.
# Submitted via: dBpowerAMP V12.0
#
DISCID=8b0b2c0a
DTITLE=Tansini - Blues Garage
DYEAR=2011
DGENRE=Blues
TTITLE0=Brown
TTITLE1=Cherry
TTITLE2=Blues Garage
TTITLE3=Oranje
TTITLE4=Green
TTITLE5=Yellow
TTITLE6=Amber
TTITLE7=Purple
TTITLE8=White
TTITLE9=Black
EXTD=
EXTT0=
EXTT1=
EXTT2=
EXTT3=
EXTT4=
EXTT5=
EXTT6=
EXTT7=
EXTT8=
EXTT9=
PLAYORDER=
